<?xml version="1.0" encoding="UTF-8" standalone="no"?>
<!DOCTYPE svg PUBLIC "-//W3C//DTD SVG 1.1//EN" "http://www.w3.org/Graphics/SVG/1.1/DTD/svg11.dtd">
<svg width="100%" height="100%" viewBox="0 0 35 35" version="1.1" xmlns="http://www.w3.org/2000/svg" xmlns:xlink="http://www.w3.org/1999/xlink" xml:space="preserve" xmlns:serif="http://www.serif.com/" style="fill-rule:evenodd;clip-rule:evenodd;stroke-linejoin:round;stroke-miterlimit:2;">
    <path d="M32.16,12.11C32.16,10.12 31.559,8.176 30.436,6.533C29.312,4.89 27.719,3.625 25.864,2.903C24.009,2.181 21.98,2.036 20.041,2.487C18.103,2.938 16.346,3.963 15,5.43L2.52,5.43L2.52,31.77L28.87,31.77L28.87,19.46C29.904,18.535 30.732,17.402 31.299,16.136C31.866,14.869 32.159,13.498 32.16,12.11ZM27.09,12.11C27.092,13.064 26.811,13.997 26.283,14.791C25.754,15.585 25.002,16.204 24.122,16.57C23.241,16.937 22.272,17.034 21.336,16.849C20.4,16.664 19.54,16.206 18.865,15.532C18.19,14.858 17.73,13.999 17.543,13.064C17.357,12.129 17.452,11.159 17.816,10.278C18.18,9.396 18.798,8.643 19.591,8.113C20.384,7.583 21.316,7.3 22.27,7.3C23.547,7.3 24.771,7.806 25.675,8.708C26.578,9.61 27.087,10.833 27.09,12.11ZM23.8,26.7L7.59,26.7L7.59,10.5L12.53,10.5C12.435,11.032 12.384,11.57 12.38,12.11C12.383,14.732 13.426,17.246 15.28,19.1C17.134,20.955 19.648,21.997 22.27,22C22.783,21.997 23.294,21.954 23.8,21.87L23.8,26.7Z" style="fill:rgb(57,65,73);fill-rule:nonzero;"/>
</svg>
